<svg xmlns="http://www.w3.org/2000/svg" version="1.1" xmlns:xlink="http://www.w3.org/1999/xlink" xmlns:svgjs="http://svgjs.dev/svgjs" viewBox="0 0 1920 1080"><rect width="1920" height="1080" fill="#0059ff"></rect><g transform="matrix(0.9959292143521045,0.5749999999999998,-0.5749999999999998,0.9959292143521045,314.3223812744616,-537.7145648088217)"><path d="M0,-1080C0.7525924034514778,-1002.4664594903444,8.110158480383703,-742.9850419530007,4.515554420708867,-614.7987569420661C0.9209503610340306,-486.6124719311315,-33.019520516640576,-446.18219656015754,-21.567624358049017,-310.8822899343921C-10.11572819945746,-175.5823833086266,69.00339699676582,63.56681047249529,73.2269313722582,197.00068281252686C77.4504657477506,330.43455515255846,22.773049308499637,374.10469198591574,3.773581894905334,489.72094410579723C-15.225885518688969,605.3371962256788,-49.014174294344556,745.9757027768998,-40.76987310930761,890.6981955318158C-32.525571924270665,1035.4206882867318,47.71867273916205,1209.1588183430104,53.23938900512701,1358.0559006352935C58.760105271091966,1506.9529829275766,1.2276559873366182,1650.423339391397,-7.645575513517883,1784.0806892855146C-16.518807014372385,1917.7380391796323,-1.274262585586314,2097.3467815475856,0,2160L 1920 2160 L 1920 -1080 Z" fill="url(&quot;#SvgjsLinearGradient1361&quot;)"></path><path d="M274.2857142857143,-1080C277.7010617854859,-981.7045525104406,295.8639188354999,-707.3102845146681,294.7777992843439,-490.2273150626438C293.691679733188,-273.14434561061955,267.8220919888147,-6.658460375447731,267.7689969787787,222.49781671214583C267.71590196874274,451.65409379973937,287.4000787422527,677.6647540685034,294.4592292241282,884.7103474629174C301.5183797060037,1091.7559408573313,313.4861523597675,1252.2231016557826,310.1238998700319,1464.7713770786297C306.76164738029627,1677.3196525014769,280.2587452164339,2044.1285628464384,274.2857142857143,2160L 1920 2160 L 1920 -1080 Z" fill="url(&quot;#SvgjsLinearGradient1362&quot;)"></path><path d="M548.5714285714286,-1080C545.6117849489481,-1008.4968383332546,524.4015533355758,-793.7849657610684,530.8135668365454,-650.9810299995278C537.225580337515,-508.17709423798715,598.0208386261853,-381.7344733237052,587.0435095772459,-223.17638543075643C576.0661805283065,-64.6182975378077,476.4292760758117,124.80883891756378,464.9495925429088,300.36749735816454C453.46990901000595,475.9261557987653,518.6588153119616,683.8730489025946,518.1654083798286,830.1755652128483C517.6720014476956,976.4780815231019,453.95897585558373,1038.011231781624,461.98915095011097,1178.1825952196864C470.0193260446382,1318.3539586577488,551.9160793434392,1507.5675117111707,566.3464589469921,1671.203745841223C580.7768385505451,1834.8399799712754,551.5339336340224,2078.533957640204,548.5714285714286,2160L 1920 2160 L 1920 -1080 Z" fill="url(&quot;#SvgjsLinearGradient1363&quot;)"></path><path d="M822.8571428571428,-1080C821.5190236165919,-978.5732986264038,802.5385303694416,-645.5446845010487,814.8284274138376,-471.43979175842276C827.1183244582337,-297.33489901579685,910.3622914722258,-210.27947925429794,896.5965251235192,-35.370643544244565C882.8307587748126,139.53819216580882,756.6765799846555,380.32644390690746,732.2338293215978,578.0132225018974C707.7910786585401,775.7000010968874,747.5315228226274,979.7758558804494,749.9400211451728,1150.7500280256954C752.3485194677181,1321.7242001709415,734.5319656382085,1435.6499267109896,746.6848192568701,1603.8582553733736C758.8376728755318,1772.0665840357576,810.1617555904306,2067.3097092288954,822.8571428571428,2160L 1920 2160 L 1920 -1080 Z" fill="url(&quot;#SvgjsLinearGradient1364&quot;)"></path><path d="M1097.142857142857,-1080C1106.7290625573305,-990.2079756650496,1148.2894727293808,-701.4273687266775,1154.6600896296975,-541.2478539902975C1161.0307065300142,-381.06833925391743,1149.6070523301105,-247.46184359855707,1135.366558544757,-118.92291158171963C1121.1260647594036,9.616020435117804,1064.3295779512814,94.75723426115141,1069.2171269175765,229.98573811072708C1074.1046758838716,365.21424196030273,1159.4936092201986,518.9445065878863,1164.6918523425281,692.4481115157344C1169.8900954648577,865.9517164435824,1110.2513428894745,1104.7388065447665,1100.406585651554,1271.0073676778156C1090.5618284136335,1437.2759288108648,1106.167263666455,1541.8940395936654,1105.6233089150055,1690.0594783140295C1105.079354163556,1838.2249170343937,1098.5562657715486,2081.676579719005,1097.142857142857,2160L 1920 2160 L 1920 -1080 Z" fill="url(&quot;#SvgjsLinearGradient1365&quot;)"></path><path d="M1371.4285714285716,-1080C1377.4423286085876,-1005.1730818693077,1396.7659384277665,-816.4704944026616,1407.511114508668,-631.0384912158461C1418.2562905895695,-445.6064880290305,1430.0009293928485,-160.05432882058778,1435.899627913981,32.592019120893255C1441.7983264351135,225.23836706237432,1443.0243108796344,356.05887449797365,1442.9033056354633,524.8395964330402C1442.7823003912922,693.6203183681068,1447.4312329767133,874.7065965728278,1435.1735964489542,1045.2763507312927C1422.915959921195,1215.8461048897575,1379.9816573056385,1362.4708465057117,1369.357486468908,1548.2581213838296C1358.7333156321777,1734.0453962619474,1371.083390601961,2058.0430202306384,1371.4285714285716,2160L 1920 2160 L 1920 -1080 Z" fill="url(&quot;#SvgjsLinearGradient1366&quot;)"></path><path d="M1645.7142857142856,-1080C1634.1255902985527,-1001.0929031980045,1582.8177931399312,-771.1727902099004,1576.182113219888,-606.5574191880269C1569.5464332998447,-441.9420481661533,1597.806920720818,-272.4500713771051,1605.9002061940257,-92.30777386875882C1613.9934916672335,87.83452363958743,1623.5290416176322,270.39758871740025,1624.7418260591342,474.2963658620507C1625.9546105006361,678.1951430067012,1615.2614799594082,935.6910643408374,1613.176912843037,1131.0848889991441C1611.0923457266656,1326.478713657451,1606.8115278823652,1475.1734619784152,1612.2344233609067,1646.6593138118913C1617.6573188394482,1818.1451656453673,1640.134308655389,2074.4432189686486,1645.7142857142856,2160L 1920 2160 L 1920 -1080 Z" fill="url(&quot;#SvgjsLinearGradient1367&quot;)"></path></g><defs><linearGradient x1="0.1" y1="0" x2="0" y2="1" id="SvgjsLinearGradient1361"><stop stop-color="#0059ff" offset="0"></stop><stop stop-color="#0084ff" offset="0"></stop></linearGradient><linearGradient x1="0.1" y1="0" x2="0" y2="1" id="SvgjsLinearGradient1362"><stop stop-color="#3279ff" offset="0"></stop><stop stop-color="#329bff" offset="0.14285714285714285"></stop></linearGradient><linearGradient x1="0.1" y1="0" x2="0" y2="1" id="SvgjsLinearGradient1363"><stop stop-color="#639aff" offset="0"></stop><stop stop-color="#63b4ff" offset="0.2857142857142857"></stop></linearGradient><linearGradient x1="0.1" y1="0" x2="0" y2="1" id="SvgjsLinearGradient1364"><stop stop-color="#95baff" offset="0"></stop><stop stop-color="#95ccff" offset="0.42857142857142855"></stop></linearGradient><linearGradient x1="0.1" y1="0" x2="0" y2="1" id="SvgjsLinearGradient1365"><stop stop-color="#c6daff" offset="0"></stop><stop stop-color="#c6e3ff" offset="0.5714285714285714"></stop></linearGradient><linearGradient x1="0.1" y1="0" x2="0" y2="1" id="SvgjsLinearGradient1366"><stop stop-color="#f8fbff" offset="0"></stop><stop stop-color="#f8fcff" offset="0.7142857142857143"></stop></linearGradient><linearGradient x1="0.1" y1="0" x2="0" y2="1" id="SvgjsLinearGradient1367"><stop stop-color="#ffffff" offset="0"></stop><stop stop-color="#ffffff" offset="0.8571428571428571"></stop></linearGradient></defs></svg>